<svg width="170" height="170" viewBox="0 0 170 170" fill="none" xmlns="http://www.w3.org/2000/svg">
<path fill-rule="evenodd" clip-rule="evenodd" d="M85 170C131.944 170 170 131.944 170 85C170 38.0558 131.944 0 85 0C38.0558 0 0 38.0558 0 85C0 131.944 38.0558 170 85 170ZM121.705 115.426C100.455 100.938 71.9602 98.5228 39.6023 105.767C31.875 108.182 34.2363 117.282 42.017 116.392C75.8239 112.528 91.2784 113.011 115.426 124.602C122.447 127.972 128.949 120.256 121.705 115.426ZM37.6705 78.7216C28.0114 81.1364 29.3548 94.0594 41.5341 91.7614C67.1307 86.9318 94.6591 85.9659 123.636 100.938C132.812 107.216 141.269 95.8071 129.915 89.3468C101.903 73.4095 73.4091 70.9943 37.6705 78.7216ZM142.955 61.3352C117.841 44.4319 64.7159 39.1194 31.875 49.7444C20.767 53.6079 24.1477 68.5795 36.7045 65.6818C72.9261 57.323 103.352 61.3352 135.227 75.8238C142.955 80.1704 153.097 69.0625 142.955 61.3352Z" fill="#1ED760"/>
</svg>
